<?xml version="1.0" encoding="UTF-8"?>
<svg id="Layer_2" data-name="Layer 2" xmlns="http://www.w3.org/2000/svg" viewBox="0 0 278 207.6">
  <defs>
    <style>
      .cls-1 {
        fill: none;
        stroke: white;
        stroke-linecap: round;
        stroke-linejoin: round;
        stroke-width: 8px;
      }
    </style>
  </defs>
  <g id="Icons">
    <g>
      <path class="cls-1" d="M28.3,86.2c-16.8,0-24.3-10-24.3-20.65C4,26.3,79.95,4,139,4s135,22.3,135,61.55c0,10.65-7.5,20.65-24.3,20.65H28.3Z"/>
      <path class="cls-1" d="M28.3,86.2c-16.3,0-24.3,15.5-24.3,22.9,0,4.9,4.35,8.8,9.85,10.65,2.85,1.05,5.9,1.65,8.8,1.65,8.8,0,21.95-12.3,34.2-12.3s22.3,11.5,41.05,11.5,17.95-11.5,41.1-11.5,22.3,11.5,41.1,11.5,28.85-11.5,41.05-11.5,25.4,12.3,34.2,12.3c2.9,0,5.95-.6,8.8-1.65,5.5-1.85,9.85-5.75,9.85-10.65,0-7.4-8-22.9-24.3-22.9"/>
      <path class="cls-1" d="M33.45,156.65c-8.3-.25-23.6-3.45-23.6-23.95,0-5.05,1.8-9.65,4-12.95"/>
      <line class="cls-1" x1="243.5" y1="156.65" x2="34.5" y2="156.65"/>
      <path class="cls-1" d="M264.15,119.75c2.2,3.3,4,7.9,4,12.95,0,20.5-15.3,23.7-23.6,23.95"/>
      <path class="cls-1" d="M34.5,156.65h-1.05c-4.7,0-23.6.9-23.6,15.35,0,24.3,16.2,31.6,36.9,31.6h184.5c20.7,0,36.9-7.3,36.9-31.6,0-14.45-18.9-15.35-23.6-15.35h-1.05"/>
      <line class="cls-1" x1="134.65" y1="35" x2="145.55" y2="42.4"/>
      <line class="cls-1" x1="71.6" y1="46.65" x2="62.45" y2="53.8"/>
      <line class="cls-1" x1="217.2" y1="49.1" x2="209.8" y2="55.55"/>
    </g>
  </g>
</svg>