<?xml version="1.0" encoding="UTF-8"?>
<svg id="Layer_2" data-name="Layer 2" xmlns="http://www.w3.org/2000/svg" viewBox="0 0 298 198">
  <defs>
    <style>
      .cls-1 {
        fill: none;
        stroke: #4c4c4e;
        stroke-linecap: round;
        stroke-linejoin: round;
        stroke-width: 8px;
      }
    </style>
  </defs>
  <g id="Icons">
    <g>
      <path class="cls-1" d="M74,164c-31-18.8-55.4-46.8-70-80h290c-14.6,33.2-39,61.2-70,80"/>
      <rect class="cls-1" x="74" y="164" width="150" height="30"/>
      <path class="cls-1" d="M24.4,84c-1.6-8.7,1.3-17.6,7.8-23.9,6.5-6.2,15.7-9.1,24.7-7.5-.8-8.3,3.4-16.3,10.7-20.7,7.4-4.3,16.7-4.2,23.9.3,1-8,6-14.9,13.4-18.6,7.4-3.6,16.2-3.5,23.4.4,3.9-6.1,11.9-10,20.7-10s16.8,3.9,20.7,10c7.2-3.9,16-4,23.4-.4,7.4,3.7,12.4,10.6,13.4,18.6,7.2-4.5,16.5-4.6,23.9-.3,7.3,4.4,11.5,12.4,10.7,20.7,9-1.6,18.2,1.3,24.7,7.5,6.5,6.3,9.4,15.2,7.8,23.9"/>
    </g>
  </g>
</svg>