<?xml version="1.0" encoding="UTF-8"?>
<svg id="Layer_2" data-name="Layer 2" xmlns="http://www.w3.org/2000/svg" viewBox="0 0 278 198">
  <defs>
    <style>
      .cls-1 {
        fill: none;
        stroke: #4c4c4e;
        stroke-linecap: round;
        stroke-linejoin: round;
        stroke-width: 8px;
      }
    </style>
  </defs>
  <g id="Icons">
    <g>
      <path class="cls-1" d="M246.3,84h27.7c-5.3,44-30.4,89.8-70,110H74C34.4,173.8,9.3,128,4,84h242.3Z"/>
      <path class="cls-1" d="M203.6,64.2l33.2-33.3c1.6-1.7,4.1-2.5,6.4-2,2.4.4,4.3,2,5.3,4.2,5,11.2,10.3,31.2-2.2,50.9"/>
      <line class="cls-1" x1="183.9" y1="84" x2="203.6" y2="64.3"/>
      <path class="cls-1" d="M203.6,64.3v-.1c.3-1.7.4-3.4.4-5.2,0-19.3-15.7-35-35-35-17.4,0-31.8,12.7-34.5,29.4"/>
      <path class="cls-1" d="M44.5,84s-20.5-9.1-20.5-22.5,10.6-14.4,14-20c3.4-5.7-11.6-37.5,13.6-37.5,16.6,0,19.5,17.9,30.6,20,11.2,2.1,18.4-12.6,31.8-8,16.3,5.6-1.5,29.9,12.1,36.9,2,1,5,1,8.4.8,8.6-.5,19.3-2.3,19.3,9.1,0,14.9-9.4,21.2-9.4,21.2"/>
      <polyline class="cls-1" points="64 44 79.2 61.4 88.3 71.7 99 84"/>
      <line class="cls-1" x1="94" y1="44" x2="88.3" y2="71.7"/>
      <line class="cls-1" x1="79.2" y1="61.4" x2="54" y2="64"/>
    </g>
  </g>
</svg>